<?xml version="1.0" standalone="no"?><!DOCTYPE svg PUBLIC "-//W3C//DTD SVG 1.1//EN" "http://www.w3.org/Graphics/SVG/1.1/DTD/svg11.dtd"><svg t="1740727845468" class="icon" viewBox="0 0 1024 1024" version="1.1" xmlns="http://www.w3.org/2000/svg" p-id="2616" xmlns:xlink="http://www.w3.org/1999/xlink" width="200" height="200"><path d="M79.3 527.5l278.2 278.2c20.6 20.6 20.6 41.2 0 61.8-20.6 20.6-41.2 20.6-61.8 0L17.5 589.3c-20.6-20.6-20.6-41.2 0-61.8 20.6-20.7 41.2-20.7 61.8 0z m216.3 278.1l649.1-649.1c20.6-20.6 41.2-20.6 61.8 0 20.6 20.6 20.6 41.2 0 61.8l-649 649.2c-20.6 20.6-41.2 20.6-61.8 0-20.7-20.7-20.7-41.3-0.1-61.9z" p-id="2617" fill="#ffffff"></path></svg>