<?xml version="1.0" standalone="no"?><!DOCTYPE svg PUBLIC "-//W3C//DTD SVG 1.1//EN" "http://www.w3.org/Graphics/SVG/1.1/DTD/svg11.dtd"><svg t="1740214620635" class="icon" viewBox="0 0 1024 1024" version="1.1" xmlns="http://www.w3.org/2000/svg" p-id="2625" xmlns:xlink="http://www.w3.org/1999/xlink" width="200" height="200"><path d="M512 153.6m-102.4 0a102.4 102.4 0 1 0 204.8 0 102.4 102.4 0 1 0-204.8 0Z" fill="#8fd1f4" p-id="2626"></path><path d="M102.4 256m76.8 0l665.6 0q76.8 0 76.8 76.8l0 0q0 76.8-76.8 76.8l-665.6 0q-76.8 0-76.8-76.8l0 0q0-76.8 76.8-76.8Z" fill="#8fd1f4" p-id="2627"></path><path d="M460.8 512m0 76.8l0 307.2q0 76.8-76.8 76.8l0 0q-76.8 0-76.8-76.8l0-307.2q0-76.8 76.8-76.8l0 0q76.8 0 76.8 76.8Z" fill="#8fd1f4" p-id="2628"></path><path d="M716.8 512m0 76.8l0 307.2q0 76.8-76.8 76.8l0 0q-76.8 0-76.8-76.8l0-307.2q0-76.8 76.8-76.8l0 0q76.8 0 76.8 76.8Z" fill="#8fd1f4" p-id="2629"></path><path d="M307.2 256h409.6v409.6h-409.6z" fill="#8fd1f4" p-id="2630"></path></svg>